<svg xmlns="http://www.w3.org/2000/svg" viewBox="0 0 100 100">
  <circle cx="50" cy="50" r="45" fill="#fff3e0"/>
  <path d="M30 30 Q30 10 50 10 Q70 10 70 30 Q70 50 50 60 Q30 50 30 30 Z" fill="#ffb74d" stroke="#e65100" stroke-width="2"/>
  <circle cx="40" cy="30" r="3" fill="#fff"/>
  <circle cx="60" cy="30" r="3" fill="#fff"/>
  <path d="M40 45 Q50 55 60 45" fill="none" stroke="#fff" stroke-width="2"/>
  <path d="M50 40 Q50 60 70 60 Q90 60 90 40 Q90 20 70 10 Q50 20 50 40 Z" fill="#424242" stroke="#212121" stroke-width="2" transform="translate(10, 30)"/>
  <circle cx="60" cy="70" r="3" fill="#fff"/>
  <circle cx="80" cy="70" r="3" fill="#fff"/>
  <path d="M60 85 Q70 75 80 85" fill="none" stroke="#fff" stroke-width="2"/>
</svg>
